HIERARCHY
ROOT hip
{
	OFFSET	0.00  0.00  0.00 
	CHANNELS 6 Xposition Yposition Zposition Xrotation Zrotation Yrotation
	JOINT abdomen
	{
		OFFSET	0.000000 0.000000 0.000000
		CHANNELS 3 Xrotation Zrotation Yrotation
		JOINT chest
		{
			OFFSET	0.000000 5.018152 -1.882228
			CHANNELS 3 Xrotation Zrotation Yrotation
			JOINT neckDummy
			{
				OFFSET	0.000000 8.316447 0.784897
				CHANNELS 3 Xrotation Yrotation Zrotation
				JOINT neck
				{
					OFFSET	0.000000 2.280413 -0.392801
					CHANNELS 3 Xrotation Zrotation Yrotation
					JOINT head
					{
						OFFSET	0.000000 3.496879 0.529469
						CHANNELS 3 Xrotation Zrotation Yrotation
						JOINT figureHair
						{
							OFFSET	0.000000 4.699570 0.720622
							CHANNELS 3 Zrotation Yrotation Xrotation
							End Site
							{
								OFFSET 0.000000 -6.419331 0.000000
							}
						}
					}
				}
			}
			JOINT lCollar
			{
				OFFSET	0.599237 8.316447 0.784897
				CHANNELS 3 Yrotation Zrotation Xrotation
				JOINT lShldr
				{
					OFFSET	6.421198 0.010146 -0.332128
					CHANNELS 3 Zrotation Yrotation Xrotation
					JOINT lForeArm
					{
						OFFSET	10.552783 0.025574 0.125508
						CHANNELS 3 Yrotation Zrotation Xrotation
						JOINT lHand
						{
							OFFSET	11.035963 0.319619 0.041520
							CHANNELS 3 Zrotation Yrotation Xrotation
							End Site
							{
								OFFSET 10.353753 0.000000 0.000000
							}
						}
					}
				}
			}
			JOINT rCollar
			{
				OFFSET	-0.599237 8.316447 0.784897
				CHANNELS 3 Yrotation Zrotation Xrotation
				JOINT rShldr
				{
					OFFSET	-6.421198 0.010146 -0.332128
					CHANNELS 3 Zrotation Yrotation Xrotation
					JOINT rForeArm
					{
						OFFSET	-10.552783 0.025574 0.125508
						CHANNELS 3 Yrotation Zrotation Xrotation
						JOINT rHand
						{
							OFFSET	-11.035963 0.319619 0.041520
							CHANNELS 3 Zrotation Yrotation Xrotation
							End Site
							{
								OFFSET -10.353753 0.000000 0.000000
							}
						}
					}
				}
			}
		}
	}
	JOINT lThigh
	{
		OFFSET	4.500466 -6.400484 -1.832696
		CHANNELS 3 Xrotation Zrotation Yrotation
		JOINT lShin
		{
			OFFSET	-1.359117 -18.918689 1.179887
			CHANNELS 3 Xrotation Zrotation Yrotation
			JOINT lFoot
			{
				OFFSET	-0.652380 -17.215186 -0.312137
				CHANNELS 3 Xrotation Yrotation Zrotation
				End Site
				{
					OFFSET 0.000000 0.000000 10.353752
				}
			}
		}
	}
	JOINT rThigh
	{
		OFFSET	-4.500466 -6.400484 -1.832696
		CHANNELS 3 Xrotation Zrotation Yrotation
		JOINT rShin
		{
			OFFSET	1.359117 -18.918689 1.179887
			CHANNELS 3 Xrotation Zrotation Yrotation
			JOINT rFoot
			{
				OFFSET	0.652380 -17.215186 -0.312137
				CHANNELS 3 Xrotation Yrotation Zrotation
				End Site
				{
					OFFSET 0.000000 0.000000 10.353752
				}
			}
		}
	}
}
MOTION
Frames:     11
Frame Time: 0.066667
0.000000 42.014908 0.240040 0.000000 0.000000 0.000000 25.152800 -0.107377 -1.321870 -6.669270 0.945964 -0.108144 0.000000 0.000000 0.000000 0.000000 0.000000 0.000000 0.000000 0.000000 0.000000 0.000000 0.000000 0.000000 2.021920 -5.690310 -0.063351 -52.916199 -21.552500 14.400100 -59.320702 14.311500 4.656620 17.518204 10.662093 -1.902889 -2.021920 5.690310 -0.063351 48.292099 -25.857300 28.012501 46.492699 -10.844100 0.172174 -21.444599 -10.140700 0.608259 19.481701 9.865260 -0.777730 40.587002 -2.035190 -3.286400 14.744700 -3.589370 -0.148286 -45.091301 -5.714310 -3.114380 35.483200 -0.091299 0.153526 24.751101 -8.024920 3.523790 
0.000000 42.014908 0.240040 0.000000 0.000000 0.000000 25.152800 -0.107377 -1.321870 -6.669270 0.945964 -0.108144 0.000000 0.000000 0.000000 0.000000 0.000000 0.000000 0.000000 0.000000 0.000000 0.000000 0.000000 0.000000 2.021920 -5.690310 -0.063351 -47.131676 -18.744768 12.426410 -59.572990 9.476738 4.621375 11.912165 5.390154 -1.889881 -2.021920 5.690310 -0.063351 45.817215 -21.415813 28.839870 45.880959 -13.436457 0.010026 -16.374823 -8.333622 -0.193389 16.111080 8.340256 -1.240020 40.992149 -0.463322 -3.343399 15.825326 -4.771098 -0.035385 -46.117706 -4.440877 -2.829271 38.378849 1.596554 0.242421 24.763210 -7.779011 3.524499 
0.000000 42.014908 0.240040 0.000000 0.000000 0.000000 25.152800 -0.107377 -1.321870 -6.669270 0.945964 -0.108144 0.000000 0.000000 0.000000 0.000000 0.000000 0.000000 0.000000 0.000000 0.000000 0.000000 0.000000 0.000000 2.021920 -5.690310 -0.063351 -41.594898 -16.064400 10.533100 -59.763802 4.862980 4.582030 5.922580 -0.414596 -1.881390 -2.021920 5.690310 -0.063351 43.601501 -16.978201 29.587700 45.551701 -15.273200 -0.088842 -11.069200 -6.435600 -1.003620 12.803500 7.023620 -1.685960 41.298100 1.093550 -3.405560 17.633324 -6.666930 0.153840 -47.203602 -3.358260 -2.556930 41.452702 3.305410 0.361936 24.783216 -7.368573 3.526224 
0.000000 42.014908 0.240040 0.000000 0.000000 0.000000 25.152800 -0.107377 -1.321870 -6.669270 0.945964 -0.108144 0.000000 0.000000 0.000000 0.000000 0.000000 0.000000 0.000000 0.000000 0.000000 0.000000 0.000000 0.000000 2.021920 -5.690310 -0.063351 -39.963032 -15.302606 9.963961 -59.613003 3.632974 4.546077 2.111497 -4.635340 -1.892921 -2.021920 5.690310 -0.063351 43.499607 -15.056786 29.647289 46.328045 -13.540536 0.075044 -7.893312 -5.275531 -1.393200 11.547728 7.174401 -1.827825 41.193005 1.771725 -3.450294 19.854362 -8.961325 0.386435 -47.879482 -3.556042 -2.482460 43.416500 4.163186 0.517579 24.807686 -6.864792 3.528573 
0.000000 42.014908 0.240040 0.000000 0.000000 0.000000 25.152800 -0.107377 -1.321870 -6.669270 0.945964 -0.108144 0.000000 0.000000 0.000000 0.000000 0.000000 0.000000 0.000000 0.000000 0.000000 0.000000 0.000000 0.000000 2.021920 -5.690310 -0.063351 -40.603722 -15.673767 10.184752 -59.113235 4.808359 4.487681 0.416281 -7.023210 -1.916487 -2.021920 5.690310 -0.063351 44.677132 -14.848616 29.280664 47.566174 -9.768698 0.357547 -5.907173 -4.518114 -1.532062 11.523165 8.355789 -1.783109 41.360027 2.123524 -3.482216 22.004129 -11.195772 0.611510 -48.261112 -4.686523 -2.543867 44.671120 4.655588 0.686610 24.831411 -6.377010 3.530755 
0.000000 42.014908 0.240040 0.000000 0.000000 0.000000 25.152800 -0.107377 -1.321870 -6.669270 0.945964 -0.108144 0.000000 0.000000 0.000000 0.000000 0.000000 0.000000 0.000000 0.000000 0.000000 0.000000 0.000000 0.000000 2.021920 -5.690310 -0.063351 -40.541500 -15.737400 10.210000 -58.330502 6.357000 4.373020 0.149737 -7.752408 -1.937856 -2.021920 5.690310 -0.063351 45.605701 -14.721600 28.974199 48.231899 -6.637170 0.523331 -3.364140 -3.544610 -1.739210 11.201600 9.689570 -1.771980 42.739399 3.056530 -3.512310 23.598322 -12.911766 0.778177 -48.605598 -6.026710 -2.616320 46.024799 5.606010 0.836660 24.849195 -6.014569 3.531983 
0.000000 42.014908 0.240040 0.000000 0.000000 0.000000 25.152800 -0.107377 -1.321870 -6.669270 0.945964 -0.108144 0.000000 0.000000 0.000000 0.000000 0.000000 0.000000 0.000000 0.000000 0.000000 0.000000 0.000000 0.000000 2.021920 -5.690310 -0.063351 -37.959538 -14.623191 9.428726 -57.411411 6.805235 4.197920 0.624669 -6.997133 -1.942796 -2.021920 5.690310 -0.063351 45.241425 -13.695578 29.062004 47.685925 -6.147964 0.423325 0.471085 -2.111407 -2.181614 9.704464 10.476537 -1.927896 45.642120 4.961919 -3.543242 24.152618 -13.650792 0.835550 -49.026726 -6.954451 -2.615767 47.784813 7.359087 0.929119 24.855825 -5.886809 3.531465 
0.000000 42.014908 0.240040 0.000000 0.000000 0.000000 25.152800 -0.107377 -1.321870 -6.669270 0.945964 -0.108144 0.000000 0.000000 0.000000 0.000000 0.000000 0.000000 0.000000 0.000000 0.000000 0.000000 0.000000 0.000000 2.021920 -5.690310 -0.063351 -35.675507 -13.741511 8.727932 -56.825050 6.913294 4.076793 1.153881 -4.931591 -1.917075 -2.021920 5.690310 -0.063351 44.478233 -13.398112 29.269136 46.868435 -7.593194 0.253526 2.288428 -1.475390 -2.418093 8.751752 10.733505 -2.037469 47.862251 6.165239 -3.544397 23.182714 -12.954340 0.732740 -49.065052 -7.250945 -2.621292 48.254498 8.344416 0.900394 24.846096 -6.103072 3.528414 
0.000000 42.014908 0.240040 0.000000 0.000000 0.000000 25.152800 -0.107377 -1.321870 -6.669270 0.945964 -0.108144 0.000000 0.000000 0.000000 0.000000 0.000000 0.000000 0.000000 0.000000 0.000000 0.000000 0.000000 0.000000 2.021920 -5.690310 -0.063351 -37.665699 -15.072900 9.369110 -57.121101 7.999880 4.153700 1.050180 -1.729980 -1.846460 -2.021920 5.690310 -0.063351 44.694500 -16.108700 29.168400 47.114498 -9.587500 0.296196 -2.233530 -3.268570 -1.855430 10.713100 10.656300 -1.800600 46.564602 4.475630 -3.476840 20.204300 -10.363900 0.418859 -48.117802 -6.798230 -2.752760 45.236198 6.512830 0.680650 24.814800 -6.772700 3.522040 
0.000000 42.014908 0.240040 0.000000 0.000000 0.000000 25.152800 -0.107377 -1.321870 -6.669270 0.945964 -0.108144 0.000000 0.000000 0.000000 0.000000 0.000000 0.000000 0.000000 0.000000 0.000000 0.000000 0.000000 0.000000 2.021920 -5.690310 -0.063351 -44.495594 -19.224865 11.610333 -58.206333 10.579347 4.394442 3.697030 2.105843 -1.593160 -2.021920 5.690310 -0.063351 46.110699 -21.319904 28.684742 47.722767 -10.631998 0.411497 -11.852254 -6.173646 -0.644865 14.399222 10.513894 -1.352761 42.838047 1.050757 -3.382305 17.026093 -7.511638 0.084280 -46.759109 -6.075941 -2.949993 40.625370 3.086417 0.411485 24.781134 -7.488323 3.515822 
0.000000 42.014908 0.240040 0.000000 0.000000 0.000000 25.152800 -0.107377 -1.321870 -6.669270 0.945964 -0.108144 0.000000 0.000000 0.000000 0.000000 0.000000 0.000000 0.000000 0.000000 0.000000 0.000000 0.000000 0.000000 2.021920 -5.690310 -0.063351 -47.517311 -22.466534 12.870529 -58.410488 12.585053 4.356609 17.477676 5.047024 -0.936797 -2.021920 5.690310 -0.063351 46.053795 -21.988634 28.638838 44.219280 -9.931405 -0.323035 -12.440051 -3.134006 -0.649064 14.399222 10.513894 -1.352761 42.838047 1.050757 -3.382305 17.026093 -7.511638 0.084280 -46.759109 -6.075941 -2.949993 40.625370 3.086417 0.411485 24.781134 -7.488323 3.515822 
